<svg width="26" height="27" viewBox="0 0 26 27" fill="none" xmlns="http://www.w3.org/2000/svg">
<g clip-path="url(#clip0_92_1355)">
<path fill-rule="evenodd" clip-rule="evenodd" d="M-12.0771 12.5852V26.9262H12.2719H36.6209V12.5852V-1.75586H12.2719H-12.0771V12.5852ZM36.5063 12.5852V26.8105H12.2719H-11.9626V12.5852V-1.64021H12.2719H36.5063V12.5852ZM8.82865 1.17642C8.63649 1.26431 8.34006 1.50314 8.16979 1.70727C7.91748 2.01005 7.86041 2.19336 7.86041 2.70165C7.86041 3.23146 7.91278 3.38505 8.20989 3.72658C8.81604 4.42339 9.75941 4.5454 10.4293 4.01351C11.591 3.09118 11.0754 1.23066 9.61217 1.06574C9.37349 1.03879 9.02092 1.08864 8.82865 1.17642ZM9.62775 1.80048C9.67542 1.84825 9.82587 1.88722 9.96188 1.88722C10.133 1.88722 10.2094 1.95858 10.2094 2.11853C10.2094 2.24575 10.2538 2.41946 10.3083 2.50447C10.4367 2.70536 10.2237 2.92047 9.89187 2.92475C9.69673 2.92729 9.64448 2.98709 9.67061 3.17803C9.7098 3.46497 9.53139 3.62145 9.32136 3.48428C9.24264 3.43282 9.075 3.39072 8.94896 3.39072C8.79622 3.39072 8.71979 3.31358 8.71979 3.15941C8.71979 3.03219 8.67671 2.86079 8.624 2.77845C8.48593 2.56287 8.74179 2.30439 9.02035 2.37783C9.20288 2.42605 9.24722 2.39113 9.21949 2.22135C9.1591 1.85126 9.41474 1.58757 9.62775 1.80048ZM4.30832 4.57108C4.04111 4.66973 3.61555 5.09348 3.43806 5.43778C2.92759 6.42824 3.77826 7.76623 4.91836 7.76623C6.55359 7.76623 7.21875 5.67152 5.87628 4.74965C5.50847 4.49706 4.74465 4.41009 4.30832 4.57108ZM7.5688 5.00466C7.00035 5.5783 7.40311 6.57119 8.20417 6.57119C8.42737 6.57119 8.66227 6.46629 8.83953 6.28726C9.40798 5.71362 9.00522 4.72073 8.20417 4.72073C7.98096 4.72073 7.74606 4.82563 7.5688 5.00466ZM10.1647 5.46045C9.80009 5.66435 9.58822 6.07399 9.58318 6.58449C9.5747 7.46241 10.4984 8.03154 11.294 7.63855C11.8569 7.36064 12.1352 6.76745 11.976 6.18537C11.7737 5.44576 10.851 5.07648 10.1647 5.46045ZM8.14332 5.52452C8.18033 5.58489 8.10207 5.69291 7.9695 5.76462C7.74835 5.88409 7.73896 5.87507 7.85572 5.65475C7.99803 5.38643 8.04558 5.36492 8.14332 5.52452ZM8.59914 5.65579C8.56224 5.71605 8.48329 5.7349 8.42359 5.69766C8.36389 5.66042 8.34522 5.58073 8.38211 5.52048C8.41901 5.46022 8.49796 5.44137 8.55766 5.47861C8.61735 5.51585 8.63603 5.59553 8.59914 5.65579ZM4.56613 5.60687C4.48741 5.63902 4.35851 5.63902 4.27967 5.60687C4.20095 5.57483 4.26535 5.54858 4.4229 5.54858C4.58046 5.54858 4.64497 5.57483 4.56613 5.60687ZM5.68332 6.05075C5.68332 6.53198 5.66121 6.57119 5.3901 6.57119C5.22384 6.57119 5.12748 6.62126 5.1677 6.68684C5.20803 6.75265 5.10937 6.80249 4.93853 6.80249C4.77353 6.80249 4.66823 6.75403 4.70455 6.6947C4.74087 6.63537 4.62789 6.56517 4.4535 6.53857C4.2791 6.51197 4.45877 6.48237 4.85259 6.47288L5.56874 6.45553V6.05919C5.56874 5.77908 5.50996 5.64746 5.36822 5.60999C5.21731 5.57021 5.23152 5.55378 5.42551 5.54372C5.65663 5.53169 5.68332 5.5842 5.68332 6.05075ZM11.1627 6.23336C11.2819 6.23903 11.3007 6.26471 11.212 6.30079C11.0136 6.38163 11.0322 6.6799 11.2406 6.76063C11.4657 6.84783 11.462 7.0338 11.2351 7.0338C11.1375 7.0338 10.9958 6.89074 10.92 6.71575C10.8175 6.4789 10.7092 6.40314 10.4958 6.4191C10.3304 6.43136 10.2941 6.41563 10.4099 6.38163C10.5202 6.34936 10.6104 6.227 10.6104 6.10973C10.6104 5.82476 10.887 5.7401 10.9335 6.01096C10.9536 6.12823 11.0567 6.22839 11.1627 6.23336ZM8.37604 5.99292C8.33708 6.05653 8.21803 6.10776 8.11147 6.10684C7.94452 6.10522 7.94142 6.08949 8.08958 5.99292C8.31394 5.8465 8.46565 5.8465 8.37604 5.99292ZM10.6104 6.97597C10.6104 7.07231 10.5086 7.14945 10.3813 7.14945C10.254 7.14945 10.1521 7.07231 10.1521 6.97597C10.1521 6.87963 10.254 6.80249 10.3813 6.80249C10.5086 6.80249 10.6104 6.87963 10.6104 6.97597ZM6.5427 7.55343C5.07775 8.08162 5.01599 10.1162 6.44553 10.7544C7.71569 11.3215 9.10136 10.222 8.84618 8.84933C8.65574 7.82464 7.53672 7.19514 6.5427 7.55343ZM7.72246 8.971C7.69244 9.66133 7.66219 9.75166 7.46098 9.75166C7.14186 9.75166 7.08457 9.34849 7.39211 9.2673C7.55024 9.22566 7.63125 9.11082 7.63125 8.92855C7.63125 8.62889 7.60237 8.61825 7.07815 8.72407C6.74552 8.79127 6.72374 8.82874 6.69143 9.38908C6.65992 9.93624 6.63471 9.98296 6.37083 9.98296C6.00737 9.98296 5.98262 9.65057 6.34218 9.59899C6.56894 9.56649 6.59999 9.49467 6.59999 9.00338C6.59999 8.4553 6.60824 8.44246 7.02968 8.32947C7.77367 8.12996 7.75947 8.11689 7.72246 8.971ZM2.18852 8.71494C1.41863 9.10966 1.08852 9.94954 1.39721 10.7281C2.05125 12.3781 4.4221 11.9301 4.4221 10.1564C4.4221 8.94856 3.23158 8.18027 2.18852 8.71494ZM10.1555 9.14783C9.76101 9.34941 9.34989 10.0059 9.35046 10.4338C9.35103 10.9136 9.71461 11.4895 10.1657 11.7248C11.0659 12.1947 12.2154 11.494 12.2138 10.4762C12.213 9.92953 11.9238 9.3907 11.5053 9.15639C11.1663 8.96648 10.5186 8.96244 10.1555 9.14783ZM3.10519 9.46252C3.14415 9.52613 3.07288 9.57818 2.94684 9.57818C2.82079 9.57818 2.68581 9.52613 2.64686 9.46252C2.6079 9.39891 2.67917 9.34687 2.80521 9.34687C2.93125 9.34687 3.06623 9.39891 3.10519 9.46252ZM2.46719 9.87217C2.68009 9.73928 2.96357 10.0382 2.80613 10.2297C2.6315 10.442 2.3604 10.4305 2.3604 10.2107C2.3604 10.1132 2.2834 10.0037 2.18921 9.96723C2.09502 9.93069 2.04987 9.8488 2.08895 9.78496C2.13352 9.7121 2.1923 9.72205 2.2473 9.81191C2.29543 9.89056 2.39431 9.91762 2.46719 9.87217ZM3.58381 9.99464C3.66677 10.2129 3.37928 10.439 3.26206 10.2476C3.16695 10.0924 3.26091 9.80948 3.40746 9.80948C3.46579 9.80948 3.54508 9.89275 3.58381 9.99464ZM2.65133 10.8504C2.74345 10.8504 2.81873 10.8094 2.81873 10.7593C2.81873 10.7093 2.92518 10.6602 3.05523 10.6503C3.33963 10.6287 3.2915 10.8904 3.00069 10.9474C2.64984 11.016 2.25658 10.8558 2.12034 10.5888L1.98834 10.3299L2.23619 10.5901C2.37243 10.7332 2.5592 10.8504 2.65133 10.8504ZM11.1296 10.8571C10.9329 10.9164 10.6431 10.9165 10.4421 10.8575C10.1473 10.771 10.1987 10.7555 10.7823 10.7551C11.3608 10.7547 11.4158 10.7708 11.1296 10.8571ZM6.89963 11.7858C5.69249 12.7442 6.29554 14.6669 7.80312 14.6669C9.32697 14.6669 9.92682 12.6843 8.67522 11.7847C8.21551 11.4543 7.31637 11.4549 6.89963 11.7858ZM8.49383 12.7044C8.69836 12.9325 8.69825 12.9451 8.48925 13.1381C8.28953 13.3226 8.2846 13.3227 8.42084 13.1396C8.50163 13.031 8.53245 12.8848 8.48948 12.8146C8.43734 12.7295 8.36275 12.754 8.26558 12.8882C8.12969 13.0758 8.11032 13.0718 7.9821 12.8299C7.87153 12.6214 7.81217 12.5973 7.68052 12.7075C7.59045 12.783 7.51586 12.9295 7.51494 13.033C7.51334 13.1969 7.49867 13.1987 7.40208 13.0478C7.26022 12.8263 7.25599 12.6675 7.39417 12.7537C7.45284 12.7903 7.53786 12.7598 7.58312 12.6859C7.6403 12.5923 7.5743 12.5692 7.3653 12.6096C7.2003 12.6414 7.09247 12.6229 7.12582 12.5685C7.15916 12.514 7.43325 12.4695 7.73483 12.4695C8.14046 12.4695 8.338 12.5307 8.49383 12.7044ZM2.69349 12.8539C1.29981 13.5959 1.19096 15.4615 2.48495 16.4284C3.1524 16.9274 4.32046 16.8303 4.98929 16.2205C5.55889 15.7011 5.72389 15.278 5.66006 14.5012C5.5967 13.73 5.17641 13.1195 4.49349 12.8064C3.8595 12.5158 3.30113 12.5306 2.69349 12.8539ZM8.03343 12.7027C8.07308 12.7673 8.1534 12.7903 8.21207 12.7537C8.371 12.6546 8.34144 12.5852 8.14011 12.5852C8.04191 12.5852 7.9939 12.638 8.03343 12.7027ZM7.48974 13.3448C7.52365 13.3107 7.61922 13.373 7.70217 13.4833C7.79499 13.6066 7.85457 13.6282 7.85675 13.5393C7.85881 13.4599 7.92298 13.3947 7.99952 13.3947C8.08672 13.3947 8.06563 13.4684 7.94326 13.5919C7.75924 13.7778 7.72475 13.7664 7.34582 13.3958C7.12467 13.1794 6.94374 12.9535 6.94374 12.8938C6.94374 12.8342 7.05271 12.9252 7.18597 13.0961C7.31924 13.2671 7.45593 13.379 7.48974 13.3448ZM10.0735 13.5046C9.61057 13.7895 9.42643 14.1377 9.42643 14.7278C9.42643 16.3591 11.6725 16.7147 12.2066 15.1681C12.3491 14.7548 12.3487 14.636 12.2024 14.2484C11.8762 13.3833 10.8521 13.0255 10.0735 13.5046ZM3.99413 14.0652C4.09416 14.1881 4.13324 14.1881 4.21046 14.0652C4.27612 13.9609 4.30534 13.9944 4.3066 14.1754C4.30752 14.3186 4.25676 14.4356 4.19374 14.4356C3.94669 14.4356 4.08671 14.9069 4.36561 15.0139C4.52316 15.0744 4.65207 15.1469 4.65207 15.175C4.65207 15.2032 4.68335 15.3086 4.72162 15.4092C4.76769 15.5303 4.72747 15.5922 4.60303 15.5922C4.24438 15.5922 3.85273 15.2224 3.73208 14.77C3.66596 14.5225 3.5421 14.32 3.45673 14.32C3.15022 14.32 3.16191 13.9631 3.47873 13.6485L3.79269 13.3369L3.83234 13.626C3.85411 13.7851 3.92687 13.9827 3.99413 14.0652ZM11.3896 14.5224C11.3604 15.0886 11.3226 15.1874 11.1356 15.1874C10.8271 15.1874 10.7648 14.8964 11.0567 14.8192C11.2175 14.7768 11.2979 14.663 11.2979 14.4777C11.2979 14.2336 11.2598 14.2089 10.9828 14.2749C10.5527 14.3772 10.5165 14.4258 10.4749 14.9561C10.4461 15.3221 10.3927 15.4187 10.2189 15.4187C9.91043 15.4187 9.8481 15.1277 10.1401 15.0505C10.3316 15 10.3813 14.897 10.3813 14.5493C10.3813 14.1412 10.4102 14.1039 10.8109 13.9965C11.0473 13.9331 11.2819 13.8759 11.3323 13.8693C11.3827 13.8628 11.4085 14.1567 11.3896 14.5224ZM3.39165 14.9315C3.39165 15.4468 3.14071 15.8235 2.79742 15.8235C2.49549 15.8235 2.42926 15.5592 2.60286 15.0475C2.68467 14.8064 2.76029 14.57 2.77084 14.5224C2.78149 14.4747 2.7965 14.4168 2.80441 14.3939C2.81232 14.3709 2.94764 14.3769 3.10519 14.4073C3.35464 14.4554 3.39165 14.5232 3.39165 14.9315ZM2.82274 14.7749C2.6378 15.1238 2.68146 15.2645 2.96196 15.2244C3.14656 15.1979 3.23009 15.097 3.25598 14.8693C3.29941 14.4893 3.00791 14.4258 2.82274 14.7749ZM7.61188 15.8848C7.2333 16.0922 7.007 16.713 7.16088 17.1217C7.22115 17.2815 7.41606 17.5278 7.59401 17.6692C8.61529 18.48 9.87778 16.8522 8.88284 16.0072C8.49005 15.6736 8.07079 15.6332 7.61188 15.8848ZM8.14687 16.8643C8.09141 16.9549 8.02553 16.9616 7.9491 16.8845C7.88608 16.8209 7.87199 16.7077 7.91771 16.633C7.97316 16.5425 8.03905 16.5358 8.11548 16.6129C8.1785 16.6765 8.19259 16.7896 8.14687 16.8643ZM8.6625 16.6909C8.6625 16.7863 8.61094 16.8643 8.54792 16.8643C8.4849 16.8643 8.43333 16.7863 8.43333 16.6909C8.43333 16.5954 8.4849 16.5174 8.54792 16.5174C8.61094 16.5174 8.6625 16.5954 8.6625 16.6909ZM8.19866 17.1552C8.33513 17.1115 8.43333 17.1317 8.43333 17.2036C8.43333 17.4041 7.90201 17.3443 7.73116 17.1246C7.58965 16.9424 7.59343 16.9375 7.76898 17.0763C7.87875 17.1631 8.06655 17.1975 8.19866 17.1552ZM4.47447 17.2529C3.60065 17.6506 3.22883 18.599 3.60776 19.4638C4.00628 20.373 5.02321 20.7158 5.90539 20.2383C6.91934 19.6894 6.97652 18.0394 6.00393 17.3969C5.61091 17.1373 4.87998 17.0685 4.47447 17.2529ZM10.6016 18.012C10.1742 18.4434 10.1537 18.9582 10.548 19.3561C11.1424 19.9561 12.2146 19.5413 12.2146 18.7112C12.2146 18.2507 11.6731 17.6739 11.2406 17.6739C11.0573 17.6739 10.8035 17.8082 10.6016 18.012ZM11.4422 18.5287C11.4066 18.5868 11.4719 18.7038 11.5871 18.7889C11.7025 18.8741 11.7631 18.9777 11.722 19.0192C11.622 19.1202 11.2979 18.8409 11.2979 18.6536C11.2979 18.5598 11.2029 18.5262 11.0401 18.5621C10.8894 18.5956 10.8334 18.579 10.9052 18.5225C10.9729 18.4693 11.0645 18.3265 11.1089 18.2056C11.188 17.9896 11.1927 17.9896 11.3482 18.2042C11.4354 18.3246 11.4777 18.4707 11.4422 18.5287ZM5.17045 18.2228C4.79381 18.2462 4.44662 18.3274 4.39873 18.4033C4.34017 18.4963 4.3113 18.4754 4.31004 18.3389C4.30855 18.1638 4.41271 18.1395 5.08176 18.1584L5.8552 18.1802L5.17045 18.2228ZM8.20417 18.4835C7.73391 18.9581 8.05005 19.7557 8.70856 19.7557C8.92799 19.7557 9.16449 19.6674 9.27495 19.5441C9.69226 19.0788 9.33705 18.2522 8.71979 18.2522C8.56224 18.2522 8.33021 18.3563 8.20417 18.4835ZM8.89167 18.7148C8.66594 18.862 8.40045 18.862 8.49062 18.7148C8.52958 18.6512 8.67442 18.6 8.81249 18.6009C9.01656 18.6024 9.03134 18.6237 8.89167 18.7148ZM11.0425 18.9678C10.9717 19.1823 10.725 19.2178 10.725 19.0135C10.725 18.9129 10.8067 18.8304 10.9064 18.8304C11.0062 18.8304 11.0675 18.8922 11.0425 18.9678ZM5.15303 19.1601C5.5079 19.1379 5.79814 19.1587 5.79802 19.2063C5.79802 19.254 5.69135 19.2931 5.56118 19.2931C5.43101 19.2931 5.22476 19.347 5.10284 19.4128C4.96592 19.4868 4.88124 19.4899 4.88124 19.4209C4.88124 19.3594 4.76929 19.2925 4.63236 19.2722C4.49555 19.2519 4.36275 19.1572 4.33719 19.0618C4.29984 18.922 4.31199 18.9187 4.39941 19.0444C4.47492 19.1531 4.70363 19.1883 5.15303 19.1601ZM8.96088 19.2617C8.84446 19.3793 8.74832 19.2023 8.84389 19.0463C8.91607 18.9283 8.94312 18.9283 8.98185 19.0458C9.00843 19.1262 8.99892 19.2233 8.96088 19.2617ZM8.49418 19.2873C8.45201 19.3561 8.36401 19.3791 8.29858 19.3383C8.22158 19.2903 8.23338 19.2307 8.33181 19.1692C8.51572 19.0546 8.59937 19.1154 8.49418 19.2873ZM6.98706 20.3831C5.78233 20.9171 6.15713 22.7627 7.47049 22.7627C8.27761 22.7627 8.90576 21.9452 8.66479 21.2084C8.41672 20.4497 7.66803 20.0814 6.98706 20.3831ZM7.87703 20.8873C7.96744 20.8681 8.019 20.9353 8.00055 21.0481C7.98313 21.1546 8.02438 21.2763 8.0921 21.3186C8.27085 21.4301 8.00204 21.725 7.79476 21.6448C7.68774 21.6032 7.63125 21.659 7.63125 21.8057C7.63125 22.1047 7.51254 22.2093 7.33872 22.0637C7.2608 21.9984 7.12719 21.9598 7.04171 21.978C6.95635 21.9961 6.90112 21.9404 6.91911 21.8542C6.9371 21.7679 6.89883 21.6331 6.8342 21.5544C6.68994 21.379 6.79353 21.2592 7.08972 21.2592C7.23146 21.2592 7.29002 21.2015 7.2514 21.0998C7.16466 20.8717 7.40575 20.6557 7.58209 20.8034C7.65886 20.8677 7.79155 20.9055 7.87703 20.8873ZM9.98021 21.42C9.48555 21.6423 9.2235 21.987 9.16392 22.4934C9.03948 23.5512 10.1838 24.3125 11.1298 23.8015C11.6881 23.5 11.9182 22.6696 11.624 22.018C11.3656 21.4456 10.5684 21.1555 9.98021 21.42ZM11.0722 22.362C11.1945 22.5107 11.1651 22.5957 10.8929 22.8825C10.4893 23.3077 10.389 23.309 9.99476 22.8936C9.71358 22.5974 9.70212 22.5562 9.8874 22.5085C10.0014 22.479 10.3247 22.4672 10.6057 22.4823C10.902 22.4982 11.0464 22.4718 10.9495 22.4194C10.8575 22.3697 10.5673 22.3367 10.3046 22.3461C10.042 22.3554 9.85165 22.323 9.88167 22.2738C9.98354 22.1075 10.9199 22.1769 11.0722 22.362ZM10.1341 22.8805C10.3366 23.0508 10.4547 23.0782 10.6147 22.9917C11.039 22.7624 10.9719 22.647 10.4167 22.6508L9.86563 22.6548L10.1341 22.8805Z" fill="#57B847"/>
<path fill-rule="evenodd" clip-rule="evenodd" d="M-12.0771 12.5852V26.9262H12.2719H36.6209V12.5852V-1.75586H12.2719H-12.0771V12.5852ZM36.5063 12.5852V26.8105H12.2719H-11.9626V12.5852V-1.64021H12.2719H36.5063V12.5852ZM12.6729 12.5859V24.9934L13.6182 24.9149C17.7829 24.5691 21.639 22.0123 23.491 18.3689C24.5355 16.3142 24.8761 14.892 24.8761 12.5852C24.8761 10.2783 24.5355 8.85615 23.491 6.80145C21.6448 3.16959 17.7791 0.596647 13.6621 0.259401L12.6729 0.178444V12.5859ZM16.2469 1.91614C16.8158 2.25118 17.0271 2.82159 17.0271 4.02219C17.0271 5.05751 17.0244 5.06769 16.7434 5.06769C16.5873 5.06769 16.2909 5.17155 16.0845 5.29854C15.6078 5.59195 15.1235 5.59195 14.6467 5.29854C14.4404 5.17155 14.144 5.06769 13.9879 5.06769C13.7084 5.06769 13.7042 5.05312 13.7042 4.09216C13.7042 3.55564 13.7592 2.97009 13.8264 2.79105C13.9737 2.39876 14.3645 1.955 14.6781 1.82408C15.0771 1.65754 15.8886 1.70518 16.2469 1.91614ZM14.528 2.06371C14.0092 2.38291 13.8188 2.90914 13.8188 4.02311C13.8188 4.8838 13.8361 4.95204 14.0547 4.95204C14.2151 4.95204 14.2617 4.90578 14.2006 4.80747C14.1509 4.72802 14.0819 4.36672 14.047 4.00472C13.9924 3.43894 14.0122 3.33902 14.1876 3.29276C14.2998 3.26315 14.3925 3.14299 14.3934 3.02572C14.3944 2.90844 14.4459 2.73438 14.5079 2.63897C14.588 2.51557 14.5999 2.57409 14.5491 2.84136C14.4922 3.14079 14.5154 3.21724 14.6638 3.21724C14.7663 3.21724 14.8516 3.1261 14.8535 3.01484C14.8568 2.82205 14.8625 2.82205 14.9738 3.01484C15.0629 3.16924 15.2418 3.21724 15.7284 3.21724C16.345 3.21724 16.3645 3.20764 16.3122 2.93157C16.2824 2.77452 16.3023 2.67344 16.3561 2.70709C16.4101 2.74075 16.4542 2.89526 16.4542 3.05058C16.4542 3.21608 16.5209 3.33289 16.6153 3.33289C16.7074 3.33289 16.7596 3.41952 16.737 3.53528C16.7152 3.64654 16.671 4.01085 16.6386 4.34486C16.5918 4.82598 16.6141 4.95204 16.746 4.95204C16.983 4.95204 16.9806 3.10714 16.7429 2.64348C16.3287 1.83506 15.3261 1.57253 14.528 2.06371ZM14.2427 3.4061C14.1986 3.45063 14.1625 3.74381 14.1625 4.05769C14.1625 4.55234 14.2143 4.68048 14.5521 5.02143C15.0965 5.5709 15.6369 5.56882 16.1854 5.01519C16.5507 4.64648 16.5784 4.56865 16.5463 4.00322L16.5115 3.39072L15.4172 3.35787C14.8154 3.33983 14.287 3.36157 14.2427 3.4061ZM14.819 3.86536C14.7809 3.90376 14.682 3.90792 14.5994 3.8745C14.508 3.8376 14.5351 3.81019 14.6686 3.80464C14.7894 3.79967 14.857 3.82696 14.819 3.86536ZM16.194 3.86536C16.1559 3.90376 16.057 3.90792 15.9744 3.8745C15.883 3.8376 15.9101 3.81019 16.0436 3.80464C16.1644 3.79967 16.232 3.82696 16.194 3.86536ZM15.3084 4.48943C15.3084 4.37898 15.3458 4.37678 15.4691 4.48006C15.5804 4.57339 15.6482 4.57686 15.6897 4.49139C15.7226 4.4235 15.7362 4.43437 15.7199 4.51545C15.6781 4.72385 15.0537 4.70176 14.9842 4.48943C14.9354 4.34069 14.9545 4.33861 15.1178 4.47462C15.2621 4.59479 15.3084 4.59837 15.3084 4.48943ZM20.7525 4.93226C20.7086 5.0478 20.7767 5.06769 21.0268 5.01229C21.4097 4.9274 21.5741 5.08944 21.3206 5.30189C21.1183 5.47132 21.1978 6.16848 21.4531 6.46467C21.6559 6.70002 21.6521 6.855 21.4386 7.0338C21.3441 7.11302 21.2667 7.29125 21.2667 7.42991C21.2667 7.76635 20.6163 8.64439 20.2681 8.77809C20.1154 8.83672 19.8655 8.85303 19.7126 8.81428C19.3898 8.73252 18.6313 7.74634 18.6313 7.40829C18.6313 7.28153 18.5539 7.11302 18.4594 7.0338C18.3649 6.95458 18.2875 6.81649 18.2875 6.72686C18.2875 6.63722 18.3649 6.53395 18.4594 6.4974C18.5539 6.46074 18.6315 6.29327 18.6317 6.12511C18.6323 5.68551 19.0369 5.07891 19.4449 4.90566C19.9176 4.70512 20.8316 4.72374 20.7525 4.93226ZM19.2463 5.15698C18.9921 5.36481 18.7459 5.77237 18.7459 5.98529C18.7459 6.05306 18.849 6.00448 18.975 5.87727C19.261 5.5886 20.5034 5.54742 20.8806 5.814C21.1039 5.97199 21.115 5.96493 21.0645 5.69777C21.0348 5.54129 21.0746 5.33555 21.1527 5.24048C21.3204 5.03635 21.3178 5.03589 20.8259 5.17826C20.5097 5.26985 20.455 5.25991 20.5079 5.12043C20.5849 4.91815 20.4235 4.90416 20.0902 5.08423C19.9065 5.18346 19.8344 5.18346 19.8016 5.08423C19.7399 4.8971 19.5308 4.9244 19.2463 5.15698ZM19.1183 5.83818C18.9458 5.90838 18.9195 7.10123 19.0881 7.20635C19.1502 7.2451 19.3847 7.22567 19.6089 7.16322C19.8864 7.08584 20.1306 7.08955 20.3728 7.17478C20.6752 7.28118 20.7521 7.268 20.8832 7.087C21.0924 6.79821 21.0782 6.16605 20.8575 5.9433C20.7302 5.81493 20.4698 5.76427 19.9695 5.77075C19.58 5.77572 19.1971 5.80614 19.1183 5.83818ZM19.3643 6.32057C19.3967 6.37365 19.3482 6.41702 19.2564 6.41702C19.1647 6.41702 19.0896 6.37365 19.0896 6.32057C19.0896 6.2676 19.1381 6.22423 19.1974 6.22423C19.2568 6.22423 19.3318 6.2676 19.3643 6.32057ZM20.8084 6.32057C20.8084 6.37365 20.7333 6.41702 20.6415 6.41702C20.5498 6.41702 20.5013 6.37365 20.5337 6.32057C20.5661 6.2676 20.6412 6.22423 20.7005 6.22423C20.7599 6.22423 20.8084 6.2676 20.8084 6.32057ZM18.4532 6.6969C18.4109 6.76606 18.4336 6.88056 18.5037 6.95134C18.5974 7.04583 18.6313 7.0124 18.6313 6.82562C18.6313 6.54632 18.5718 6.5033 18.4532 6.6969ZM21.2667 6.80932C21.2667 6.94024 21.3183 7.0153 21.3813 6.97597C21.4443 6.93665 21.4959 6.82956 21.4959 6.73784C21.4959 6.64613 21.4443 6.57119 21.3813 6.57119C21.3183 6.57119 21.2667 6.6784 21.2667 6.80932ZM18.7476 7.22012C18.7461 7.62201 18.8225 7.77872 19.2409 8.23209C19.5131 8.52723 19.8313 8.7686 19.948 8.7686C20.0647 8.7686 20.3834 8.53348 20.6561 8.24608C21.0657 7.81458 21.1509 7.6485 21.1449 7.29194C21.1383 6.90126 21.1273 6.88634 21.0288 7.13465C20.9337 7.3744 20.8731 7.39788 20.5491 7.32062C20.2033 7.23816 20.0612 7.23562 19.3245 7.29888C19.1267 7.31576 19.0004 7.23758 18.8965 7.0338C18.7539 6.75369 18.7492 6.75959 18.7476 7.22012ZM15.5375 7.61207C15.5375 7.67568 15.3898 7.72772 15.2092 7.72772C14.8195 7.72772 14.3387 8.0815 14.1029 8.54181C13.9136 8.91109 13.8758 9.46252 14.0398 9.46252C14.1963 9.46252 14.4805 9.14829 14.564 8.88275C14.6327 8.66463 14.6566 8.67122 14.9814 8.9991C15.3766 9.39799 15.5375 9.43731 15.5375 9.13488C15.5375 8.76721 15.6452 8.78884 16.0998 9.24764C16.3429 9.49305 16.651 9.69383 16.7844 9.69383C16.986 9.69383 17.0271 9.62432 17.0271 9.28326C17.0271 8.57176 16.5676 7.92618 15.9222 7.73096C15.6869 7.65983 15.6593 7.6293 15.824 7.62248C16.1921 7.60721 16.7435 8.01443 16.9503 8.45437C17.1642 8.90924 17.2086 9.98539 17.0185 10.1039C16.9385 10.1539 16.9752 10.2678 17.1231 10.4288C17.3638 10.6909 17.4086 10.8441 17.3811 11.313C17.3642 11.6018 17.3638 11.6016 17.0115 11.2105C16.8175 10.9952 16.6256 10.8681 16.5852 10.9281C16.2157 11.4754 15.1719 11.5975 14.6604 11.1534L14.3433 10.8781L13.9951 11.2401L13.6469 11.6021L13.6106 11.1552C13.5835 10.8232 13.6373 10.6406 13.8197 10.4445C13.9776 10.275 14.0212 10.1534 13.9419 10.1039C13.8742 10.0617 13.8188 9.7616 13.8188 9.43696C13.8188 8.43945 14.3261 7.77953 15.2511 7.57413C15.3771 7.54614 15.4932 7.51723 15.5089 7.50983C15.5246 7.50243 15.5375 7.54846 15.5375 7.61207ZM20.35 7.66307C20.35 7.89935 20.1534 7.99234 19.8279 7.90987C19.386 7.79792 19.4743 7.49641 19.949 7.49641C20.2218 7.49641 20.35 7.54973 20.35 7.66307ZM19.7198 7.72772C19.7588 7.79133 19.8619 7.84337 19.949 7.84337C20.0361 7.84337 20.1392 7.79133 20.1782 7.72772C20.2185 7.66191 20.1198 7.61207 19.949 7.61207C19.7781 7.61207 19.6795 7.66191 19.7198 7.72772ZM14.4776 9.28557C14.3551 9.45558 14.2771 9.77259 14.2771 10.1004C14.2771 10.5391 14.3381 10.6984 14.612 10.9749C15.2743 11.6434 16.4254 11.3351 16.6751 10.4222C16.8201 9.89241 16.7616 9.80462 16.3065 9.86951C16.0421 9.90721 16.0114 9.89807 16.1972 9.83678C16.4495 9.75374 16.4459 9.74379 16.0565 9.43072C15.8232 9.24324 15.685 9.1831 15.7242 9.28615C15.8228 9.54579 15.4011 9.51156 15.0479 9.23122C14.6927 8.94914 14.7219 8.94636 14.4776 9.28557ZM14.0002 9.67833C13.9508 9.75894 13.9414 9.85609 13.9792 9.89426C14.0817 9.99777 14.1936 9.84557 14.1381 9.67787C14.0994 9.56036 14.0723 9.56036 14.0002 9.67833ZM14.9336 9.87934C14.8955 9.91773 14.7966 9.9219 14.714 9.88847C14.6226 9.85158 14.6497 9.82417 14.7832 9.81862C14.904 9.81365 14.9716 9.84094 14.9336 9.87934ZM16.3042 10.4615C16.4222 10.772 16.1053 10.966 15.4802 10.966C14.8501 10.966 14.5633 10.7893 14.683 10.4747C14.7736 10.2361 16.2141 10.2244 16.3042 10.4615ZM13.8228 10.6114C13.7576 10.7345 13.7059 10.9557 13.708 11.103L13.7119 11.3708L13.9371 11.0977C14.1731 10.812 14.2417 10.3877 14.0519 10.3877C13.9912 10.3877 13.8881 10.4884 13.8228 10.6114ZM14.9646 10.5034C14.9646 10.567 15.0162 10.6191 15.0792 10.6191C15.1422 10.6191 15.1938 10.567 15.1938 10.5034C15.1938 10.4398 15.1422 10.3877 15.0792 10.3877C15.0162 10.3877 14.9646 10.4398 14.9646 10.5034ZM15.7094 10.5034C15.4908 10.5982 15.492 10.6032 15.738 10.611C15.8799 10.6154 15.9959 10.567 15.9959 10.5034C15.9959 10.4398 15.9829 10.3915 15.9672 10.3958C15.9515 10.4004 15.8354 10.4487 15.7094 10.5034ZM16.7979 10.5966C16.7979 10.7221 16.8925 10.9427 17.0081 11.0866C17.1796 11.3005 17.2304 11.3164 17.2847 11.1738C17.3634 10.9666 17.1447 10.4839 16.9412 10.4162C16.859 10.3888 16.7979 10.4658 16.7979 10.5966ZM21.4959 10.5382C22.2678 10.7481 22.298 10.7869 22.298 11.5709C22.298 12.0752 22.354 12.3403 22.4937 12.4961C22.6269 12.6447 22.6543 12.762 22.5796 12.8638C22.5192 12.9459 22.3283 13.2276 22.1553 13.4898C21.7618 14.0862 21.2526 14.3667 20.7212 14.2796C20.167 14.1889 19.7855 13.9059 19.5941 13.4435C19.5041 13.2259 19.3849 13.0478 19.3296 13.0478C19.1336 13.0478 19.0864 12.6647 19.2587 12.4726C19.4534 12.2556 19.4974 11.6599 19.3188 11.6599C19.0251 11.6599 19.4391 10.708 19.8118 10.5262C20.1492 10.3616 20.8654 10.3667 21.4959 10.5382ZM19.932 10.6182C19.7967 10.6734 19.6553 10.7686 19.6177 10.8299C19.5279 10.9768 20.076 11.1116 20.3741 11.0161C20.5408 10.9628 20.5832 10.9816 20.5217 11.082C20.4691 11.1681 20.2924 11.1994 20.0678 11.1626C19.7411 11.1091 19.296 11.235 19.4367 11.3411C19.6489 11.5011 20.1976 11.6599 20.5383 11.6599C21.0139 11.6599 21.6105 11.2757 21.6105 10.9695C21.6105 10.5945 20.5401 10.3706 19.932 10.6182ZM15.6235 10.8113C15.7023 10.8434 15.8312 10.8434 15.9099 10.8113C15.9888 10.7792 15.9242 10.753 15.7667 10.753C15.6091 10.753 15.5447 10.7792 15.6235 10.8113ZM21.725 11.2236C21.725 11.6972 21.8724 12.0069 22.0977 12.0069C22.1514 12.0069 22.1798 11.7342 22.1607 11.4008C22.134 10.9324 22.0806 10.7859 21.9256 10.7562C21.7593 10.7243 21.725 10.8043 21.725 11.2236ZM21.225 11.622C20.896 11.7972 20.1534 11.7909 19.7485 11.6094C19.5698 11.5294 19.548 11.5956 19.548 12.2183C19.548 12.6026 19.6029 13.0636 19.6702 13.2427C20.2398 14.76 22.1834 14.3155 22.1834 12.6677C22.1834 12.3688 22.1116 12.2174 21.9053 12.0809C21.7523 11.9797 21.6105 11.7957 21.5902 11.6721C21.5556 11.4617 21.5319 11.4585 21.225 11.622ZM19.2788 12.6393C19.2433 12.7326 19.2636 12.8398 19.3238 12.8774C19.3841 12.915 19.4334 12.8386 19.4334 12.7076C19.4334 12.4283 19.3697 12.4002 19.2788 12.6393ZM21.7823 12.5852C21.8213 12.6488 21.7697 12.7008 21.6677 12.7008C21.5658 12.7008 21.5142 12.6488 21.5532 12.5852C21.5921 12.5216 21.6437 12.4695 21.6677 12.4695C21.6918 12.4695 21.7434 12.5216 21.7823 12.5852ZM22.298 12.7008C22.298 12.9167 22.3286 12.9475 22.4355 12.8396C22.5424 12.7317 22.5424 12.6699 22.4355 12.562C22.3286 12.4541 22.298 12.4849 22.298 12.7008ZM20.2044 12.655C20.1664 12.6934 20.0675 12.6976 19.9849 12.6642C19.8934 12.6273 19.9206 12.5999 20.0541 12.5943C20.1748 12.5893 20.2424 12.6166 20.2044 12.655ZM20.8657 13.5585C21.1177 13.5585 21.4271 13.5174 21.5532 13.4673C21.779 13.3772 21.7791 13.3785 21.5599 13.5587C21.2795 13.7893 20.61 13.7881 20.2355 13.5561C20.0669 13.4518 20.0433 13.4158 20.1782 13.4686C20.3042 13.5181 20.6136 13.5585 20.8657 13.5585ZM14.9073 13.7335C14.3234 13.8757 14.0844 14.0633 13.8324 14.5769C13.699 14.8491 13.5897 15.0041 13.5897 14.9214C13.5894 14.3702 14.3978 13.6158 14.9646 13.6383C15.2267 13.6487 15.2217 13.6569 14.9073 13.7335ZM15.9732 13.7877C16.3396 13.979 16.7481 14.4089 16.6538 14.5041C16.6172 14.541 16.5274 14.4581 16.4542 14.3201C16.381 14.182 16.1061 13.9705 15.8433 13.8501C15.5806 13.7297 15.4327 13.63 15.5146 13.6286C15.5964 13.6272 15.8029 13.6988 15.9732 13.7877ZM14.5063 14.9561C14.8367 15.1468 14.7204 15.1915 14.3768 15.0059C14.2102 14.9158 14.1032 14.9196 13.9833 15.02C13.8808 15.1059 13.8188 15.1127 13.8188 15.0377C13.8188 14.9325 13.9917 14.8108 14.1625 14.7958C14.194 14.793 14.3487 14.8652 14.5063 14.9561ZM16.5033 14.9643C16.6023 15.0643 16.687 15.2074 16.6914 15.2823C16.6958 15.3574 16.7437 15.3146 16.7979 15.1874C16.8747 15.0069 16.8982 15.0615 16.9045 15.4352C16.9099 15.7601 16.8572 15.9358 16.7407 15.981C16.6062 16.033 16.5688 15.9506 16.5688 15.6027C16.5688 15.0657 16.3443 14.8257 16.0108 15.0059C15.6671 15.1915 15.5508 15.1468 15.8813 14.9561C16.2473 14.7449 16.2864 14.7455 16.5033 14.9643ZM15.3943 15.2092C15.2839 15.2384 15.1036 15.2384 14.9932 15.2092C14.8829 15.1802 14.9732 15.1564 15.1938 15.1564C15.4143 15.1564 15.5046 15.1802 15.3943 15.2092ZM13.9333 15.3196C13.9333 15.3332 13.8476 15.4308 13.7429 15.5365C13.6201 15.6605 13.5952 15.7559 13.6727 15.8051C13.7389 15.8469 13.8691 16.0634 13.962 16.2861C14.1905 16.8336 14.493 17.0814 15.0918 17.2114L15.5948 17.3206L15.095 17.2753C14.5614 17.2268 14.0004 16.8063 13.8638 16.3525C13.8242 16.2205 13.7227 16.033 13.6385 15.9358C13.4215 15.6853 13.4752 15.2948 13.7268 15.2948C13.8403 15.2948 13.9333 15.3059 13.9333 15.3196ZM15.9268 15.5728C15.9592 15.6259 15.913 15.6693 15.824 15.6693C15.7349 15.6693 15.6888 15.6259 15.7212 15.5728C15.7536 15.5199 15.7999 15.4765 15.824 15.4765C15.848 15.4765 15.8943 15.5199 15.9268 15.5728ZM20.7781 16.1228C21.2963 16.4596 21.378 16.7401 21.4121 18.2977L21.4445 19.7741L20.8114 19.7059C19.9575 19.614 19.7265 19.614 18.8767 19.7063C18.1986 19.7798 18.1528 19.7702 18.2151 19.5681C18.2881 19.3311 18.2991 19.08 18.2915 17.825C18.2888 17.3674 18.3424 16.8693 18.4107 16.718C18.4789 16.5669 18.8014 16.3026 19.1273 16.1309C19.7641 15.7951 20.2703 15.7927 20.7781 16.1228ZM19.1663 16.2515C18.6073 16.5547 18.4021 16.8632 18.4021 17.4C18.4021 17.6466 18.4403 17.6777 18.6599 17.6102C18.8018 17.5666 18.9974 17.4606 19.0947 17.3747C19.245 17.2421 19.3555 17.2615 19.8302 17.5041C20.4055 17.7981 21.0375 17.8834 21.0375 17.6671C21.0375 17.5998 21.0891 17.5768 21.1521 17.6161C21.3381 17.7321 21.2856 16.8854 21.0881 16.581C20.9194 16.3211 20.1682 15.9319 19.8608 15.9451C19.7832 15.9485 19.4707 16.0863 19.1663 16.2515ZM16.5688 16.3316C16.5688 16.5298 15.953 17.2113 15.774 17.2113C15.7026 17.2113 15.8264 17.0497 16.0491 16.8523C16.2719 16.6549 16.4542 16.4207 16.4542 16.3319C16.4542 16.2431 16.48 16.1704 16.5115 16.1704C16.543 16.1704 16.5688 16.2429 16.5688 16.3316ZM18.9464 17.6012C18.4863 17.9733 18.5143 18.5042 19.0209 19.0155C19.4339 19.4324 20.0063 19.5407 20.4709 19.2896C20.9298 19.0417 21.2539 17.9052 20.8657 17.9052C20.7711 17.9052 20.6938 17.9573 20.6938 18.0209C20.6938 18.0845 20.6035 18.1357 20.4933 18.1348C20.3273 18.1333 20.3214 18.1147 20.4587 18.027C20.587 17.9451 20.5482 17.9029 20.2868 17.8405C20.101 17.7962 19.7943 17.6667 19.6052 17.5529C19.2694 17.3509 19.2542 17.3521 18.9464 17.6012ZM18.3497 18.0129C18.3134 18.0721 18.3362 18.1532 18.4003 18.1932C18.4643 18.2331 18.5167 18.1846 18.5167 18.0855C18.5167 17.8823 18.4479 17.8525 18.3497 18.0129ZM21.1521 18.0787C21.1521 18.1741 21.2037 18.2522 21.2667 18.2522C21.3297 18.2522 21.3813 18.1741 21.3813 18.0787C21.3813 17.9833 21.3297 17.9052 21.2667 17.9052C21.2037 17.9052 21.1521 17.9833 21.1521 18.0787ZM19.2877 18.0907C19.2497 18.1291 19.1508 18.1333 19.0682 18.0999C18.9767 18.063 19.0039 18.0356 19.1374 18.03C19.2582 18.025 19.3258 18.0523 19.2877 18.0907ZM21.0992 18.701C21.0585 18.8302 20.8762 19.0626 20.694 19.2173C20.3027 19.5496 20.3528 19.64 20.928 19.64H21.3531L21.2947 19.0907C21.2257 18.4427 21.1978 18.3871 21.0992 18.701ZM18.4759 18.8535C18.3102 19.4775 18.3764 19.64 18.7964 19.64C19.2181 19.64 19.4286 19.476 19.1469 19.3668C19.0531 19.3305 18.8796 19.1403 18.7614 18.9441C18.5504 18.5938 18.5452 18.5921 18.4759 18.8535ZM20.1604 18.975C20.1313 19.0227 19.9815 19.0618 19.8277 19.0618C19.6738 19.0618 19.548 19.0227 19.548 18.975C19.548 18.9274 19.6977 18.8883 19.8808 18.8883C20.0638 18.8883 20.1896 18.9274 20.1604 18.975ZM16.6532 19.2914C16.8959 19.4404 17.0302 19.646 17.12 20.006C17.2767 20.6338 17.2056 21.4425 16.9733 21.6769C16.8769 21.7743 16.7915 21.8243 16.7836 21.7878C16.7757 21.7515 16.7563 21.6697 16.7407 21.6061C16.725 21.5425 16.7056 21.2433 16.6977 20.9411L16.6835 20.3918L15.5089 20.4156L14.3344 20.4394L14.3012 21.3633C14.2718 22.1829 14.2935 22.3007 14.4934 22.4088C14.6174 22.4757 14.7947 22.5012 14.8874 22.4652C14.9802 22.4294 15.0901 22.4555 15.1317 22.5235C15.2182 22.6648 15.6856 22.69 15.815 22.5603C15.8627 22.5126 16.0369 22.4735 16.2021 22.4735C16.4072 22.4735 16.5488 22.3818 16.6485 22.1844C16.7897 21.905 16.7946 21.9039 16.7962 22.1514C16.7979 22.4077 16.4623 22.6769 16.1951 22.6336C16.117 22.6209 15.9621 22.6507 15.8507 22.6997C15.7394 22.7488 15.5074 22.7563 15.3351 22.7164C15.1628 22.6765 14.907 22.6258 14.7665 22.6038C14.4101 22.5479 14.1625 22.3146 14.1625 22.0347C14.1625 21.9044 14.0723 21.6972 13.962 21.5741C13.7056 21.288 13.71 20.1879 13.9696 19.7047C14.2289 19.2221 14.5276 19.1004 15.4779 19.0908C16.0923 19.0845 16.4023 19.1374 16.6532 19.2914ZM14.5922 19.3165C14.2952 19.3961 14.1625 19.4966 14.1625 19.6419C14.1625 19.7575 14.1114 19.8694 14.0488 19.8906C13.8654 19.9529 13.8034 21.0279 13.9833 21.0279C14.0698 21.0279 14.1645 20.8308 14.207 20.5621C14.2694 20.1679 14.3112 20.1122 14.4795 20.1994C14.7366 20.3326 16.2231 20.3329 16.48 20.1999C16.6391 20.1176 16.6914 20.1602 16.7474 20.4181C16.8608 20.9401 16.8996 21.0279 17.0162 21.0279C17.163 21.0279 17.0621 19.9645 16.9061 19.8673C16.84 19.826 16.8015 19.7231 16.8205 19.6384C16.8991 19.2897 15.4651 19.0825 14.5922 19.3165ZM14.9336 21.0977C14.8955 21.1361 14.7966 21.1403 14.714 21.1069C14.6226 21.07 14.6497 21.0426 14.7832 21.037C14.904 21.032 14.9716 21.0593 14.9336 21.0977ZM16.3086 21.0977C16.2705 21.1361 16.1716 21.1403 16.089 21.1069C15.9976 21.07 16.0247 21.0426 16.1582 21.037C16.279 21.032 16.3466 21.0593 16.3086 21.0977ZM14.0002 21.2437C13.9508 21.3243 13.9414 21.4214 13.9792 21.4596C14.0817 21.5631 14.1936 21.4109 14.1381 21.2432C14.0994 21.1257 14.0723 21.1257 14.0002 21.2437ZM16.8647 21.2437C16.8154 21.3243 16.806 21.4214 16.8438 21.4596C16.9463 21.5631 17.0582 21.4109 17.0027 21.2432C16.964 21.1257 16.9369 21.1257 16.8647 21.2437ZM16.3396 21.4258C16.3396 21.4539 16.288 21.509 16.225 21.5483C16.162 21.5876 16.1104 21.5646 16.1104 21.4973C16.1104 21.43 16.162 21.3748 16.225 21.3748C16.288 21.3748 16.3396 21.3977 16.3396 21.4258ZM14.9336 21.7916C14.8955 21.83 14.7966 21.8342 14.714 21.8008C14.6226 21.7639 14.6497 21.7365 14.7832 21.7309C14.904 21.7259 14.9716 21.7532 14.9336 21.7916ZM16.3086 21.7916C16.2705 21.83 16.1716 21.8342 16.089 21.8008C15.9976 21.7639 16.0247 21.7365 16.1582 21.7309C16.279 21.7259 16.3466 21.7532 16.3086 21.7916ZM15.7667 22.1266C15.7667 22.2345 15.6585 22.3001 15.4802 22.3001C15.3019 22.3001 15.1938 22.2345 15.1938 22.1266C15.1938 22.0187 15.3019 21.9531 15.4802 21.9531C15.6585 21.9531 15.7667 22.0187 15.7667 22.1266ZM15.4015 22.1477C15.4841 22.1812 15.583 22.177 15.6211 22.1386C15.6591 22.1002 15.5915 22.0729 15.4707 22.0779C15.3372 22.0834 15.3101 22.1108 15.4015 22.1477Z" fill="#CC384E"/>
</g>
<defs>
<clipPath id="clip0_92_1355">
<rect width="25.1282" height="26.0689" fill="white"/>
</clipPath>
</defs>
</svg>
